<svg xmlns="http://www.w3.org/2000/svg" width="94.259" height="260.2" viewBox="0 0 94.259 260.2">
  <g id="Group_74" data-name="Group 74" transform="translate(-445.23)">
    <g id="Group_65" data-name="Group 65" transform="translate(491.628)">
      <rect id="Rectangle_21" data-name="Rectangle 21" width="0.981" height="140.332"/>
    </g>
    <g id="Group_67" data-name="Group 67" transform="translate(446.04 140.332)">
      <g id="Group_66" data-name="Group 66">
        <path id="Path_90" data-name="Path 90" d="M538.264,226.147c.052,0,.1-.005.155-.005.278,0,.551.023.827.028-.632-32.659-21.278-58.98-46.583-58.98-25.114,0-45.641,25.921-46.569,58.235.327-.024.655-.029.982-.045.945-31.591,21.026-56.916,45.587-56.916C517.422,168.464,537.624,194.2,538.264,226.147Z" transform="translate(-446.094 -167.19)"/>
      </g>
    </g>
    <g id="Group_69" data-name="Group 69" transform="translate(445.76 187.225)">
      <g id="Group_68" data-name="Group 68">
        <path id="Path_91" data-name="Path 91" d="M539.461,236.665l-1.094-.008-.38,0-.02-.223c-.626-6.95-20.973-12.6-45.357-12.6-24.079,0-44.42,5.583-45.344,12.443l-.028.211-1.477.017.037-.281c.953-7.381,21.516-13.164,46.812-13.164,25.608,0,46.177,5.86,46.828,13.339Zm-1.032-.5.486,0c-.354-2.228-2.689-4.318-6.5-6.132C535.958,231.848,538.1,233.931,538.429,236.167Zm-85.648-6.1c-3.7,1.764-6.01,3.786-6.451,5.937l.483,0C447.217,233.84,449.338,231.826,452.781,230.067Z" transform="translate(-445.76 -223.058)"/>
      </g>
    </g>
    <g id="Group_71" data-name="Group 71" transform="translate(445.763 198.69)">
      <g id="Group_70" data-name="Group 70">
        <path id="Path_92" data-name="Path 92" d="M492.624,251.224c-25.3,0-45.874-6.173-46.827-14.053l-.034-.28,1.477.018.027.212c.924,7.338,21.272,13.31,45.357,13.31,24.391,0,44.745-6.048,45.372-13.482l.019-.225,1.474-.007-.022.267C538.817,244.969,518.241,251.224,492.624,251.224Zm45.836-14.008c-.334,2.518-2.7,4.854-6.591,6.858,4.163-2.01,6.717-4.355,7.079-6.863Zm-92.133.174c.454,2.428,2.985,4.7,7.041,6.661-3.8-1.952-6.137-4.218-6.557-6.655Z" transform="translate(-445.763 -236.717)"/>
      </g>
    </g>
    <g id="Group_73" data-name="Group 73" transform="translate(486.353 187.738)">
      <g id="Group_72" data-name="Group 72">
        <path id="Path_93" data-name="Path 93" d="M504.917,223.669v5.587a5.029,5.029,0,0,1-10.059,0v-5.565c-.108.005-.212.016-.323.016-.142,0-.276-.013-.413-.02v5.569a5.766,5.766,0,0,0,11.531,0v-5.5A6.542,6.542,0,0,1,504.917,223.669Z" transform="translate(-494.122 -223.669)"/>
      </g>
    </g>
    <path id="Path_94" data-name="Path 94" d="M490.805,175.5s-12.59,2.518-19.305,11.751" transform="translate(-4.135 -28.193)" fill="none" stroke="#000" stroke-miterlimit="10" stroke-width="1"/>
    <path id="Path_95" data-name="Path 95" d="M489.572,182.5s-7.554,1.679-10.072,5.875" transform="translate(-5.42 -29.318)" fill="none" stroke="#000" stroke-miterlimit="10" stroke-width="1"/>
    <line id="Line_7" data-name="Line 7" y2="22.663" transform="translate(491.706 237.537)" fill="none" stroke="#000" stroke-miterlimit="10" stroke-width="2"/>
    <line id="Line_8" data-name="Line 8" x2="9.935" y2="20.369" transform="translate(506.044 230.291)" fill="none" stroke="#000" stroke-miterlimit="10" stroke-width="2"/>
    <line id="Line_9" data-name="Line 9" x2="17.858" y2="13.952" transform="translate(519.709 222.587)" fill="none" stroke="#000" stroke-miterlimit="10" stroke-width="2"/>
    <line id="Line_10" data-name="Line 10" y1="13.952" x2="17.858" transform="translate(445.845 222.587)" fill="none" stroke="#000" stroke-miterlimit="10" stroke-width="2"/>
    <line id="Line_11" data-name="Line 11" y1="20.369" x2="9.935" transform="translate(468.273 230.291)" fill="none" stroke="#000" stroke-miterlimit="10" stroke-width="2"/>
  </g>
</svg>
